<!--?xml version="1.0" encoding="utf-8"?-->
<!-- Generator: Adobe Illustrator 18.1.1, SVG Export Plug-In . SVG Version: 6.00 Build 0)  -->

<svg version="1.1" id="_x32_" xmlns="http://www.w3.org/2000/svg" xmlns:xlink="http://www.w3.org/1999/xlink" x="0px" y="0px" viewBox="0 0 512 512" style="width: 256px; height: 256px; opacity: 1;" xml:space="preserve">
<style type="text/css">
	.st0{fill:#4B4B4B;}
</style>
<g>
	<path class="st0" d="M254.673,107.644h-89.598c-5.67,0-10.246,4.593-10.246,10.256v75.3h99.845V107.644z" style="fill: rgba(75, 75, 75, 0.39);"></path>
	<path class="st0" d="M290.239,193.2h99.845v-75.3c0-5.663-4.576-10.256-10.246-10.256h-89.598V193.2z" style="fill: rgba(75, 75, 75, 0.39);"></path>
	<path class="st0" d="M165.075,308.578h89.598v-85.556h-99.845v75.301C154.828,303.994,159.404,308.578,165.075,308.578z" style="fill: rgba(75, 75, 75, 0.39);"></path>
	<path class="st0" d="M290.239,308.578h89.598c5.67,0,10.246-4.584,10.246-10.255v-75.301h-99.845V308.578z" style="fill: rgba(75, 75, 75, 0.39);"></path>
	<path class="st0" d="M183.823,66.107c6.898,8.326,16.435,15.491,28.018,20.635c11.574,5.145,25.228,8.243,40.302,8.243
		c8.543-0.008,17.888,0.067,18.205,0c0.334,0.067,9.67-0.008,18.213,0c11.483,0,22.147-1.796,31.684-4.927
		c14.322-4.702,26.147-12.368,34.598-21.612c4.209-4.619,7.6-9.638,9.963-14.957c2.355-5.303,3.699-10.923,3.699-16.602
		c0.009-3.783-0.61-7.565-1.862-11.215c-1.403-4.05-3.44-7.742-5.971-10.931c-3.792-4.794-8.635-8.493-14.004-10.982
		C341.314,1.278,335.427,0,329.423,0c-4.41,0-8.869,0.694-13.212,2.13c-6.514,2.138-12.76,5.962-18.03,11.474
		c-5.277,5.512-9.545,12.677-12.359,21.328c-3.666,11.274-14.639,36.836-14.948,37.463h-1.044
		c-0.309-0.627-11.29-26.189-14.956-37.463c-1.871-5.77-4.384-10.873-7.424-15.274c-4.56-6.597-10.305-11.574-16.56-14.84
		C224.634,1.562,217.886,0,211.289,0c-8,0-15.825,2.28-22.439,6.639c-3.299,2.188-6.296,4.903-8.811,8.101
		c-2.539,3.19-4.576,6.882-5.988,10.931c-1.26,3.65-1.854,7.441-1.845,11.215c0,3.783,0.585,7.549,1.678,11.199
		C175.814,54.482,179.238,60.562,183.823,66.107z M302.491,40.361c1.402-4.293,3.181-7.817,5.194-10.731
		c3.014-4.351,6.53-7.316,10.238-9.261c3.716-1.938,7.65-2.823,11.5-2.84c4.66,0,9.152,1.354,12.752,3.75
		c1.82,1.186,3.407,2.639,4.726,4.318c1.337,1.696,2.406,3.616,3.174,5.821c0.593,1.712,0.894,3.515,0.894,5.453
		c0,1.937-0.301,4.008-0.952,6.179c-1.136,3.792-3.349,7.884-6.656,11.875c-4.935,5.988-12.309,11.658-21.604,15.784
		c-9.32,4.125-20.527,6.731-33.196,6.731c-0.676,0-1.336-0.009-1.979-0.025C291.192,69.69,296.761,57.998,302.491,40.361z
		 M190.629,31.425v-0.008c0.76-2.205,1.837-4.125,3.174-5.821c1.987-2.522,4.576-4.526,7.582-5.912
		c2.998-1.395,6.405-2.155,9.904-2.155c2.555,0,5.169,0.401,7.717,1.245c3.824,1.261,7.516,3.498,10.848,6.964
		c3.299,3.449,6.263,8.192,8.359,14.623c5.721,17.638,11.299,29.329,15.9,37.054c-0.634,0.016-1.294,0.025-1.97,0.025
		c-9.655,0-18.464-1.504-26.231-4.05c-11.642-3.808-20.936-9.997-27.099-16.761c-3.09-3.382-5.394-6.889-6.889-10.255
		c-1.503-3.391-2.197-6.598-2.197-9.487C189.727,34.932,190.027,33.137,190.629,31.425z" style="fill: rgba(75, 75, 75, 0.39);"></path>
	<path class="st0" d="M451.321,330.358c-7.632-8.351-18.146-12.151-28.234-12.151l-0.685,0.034v0.016
		c-9.904,0.159-19.591,3.558-27.75,9.571l-0.233,0.167l-0.117,0.084l-0.251,0.217l-0.059,0.042c-0.826,0.701-3.265,2.547-6.355,4.76
		c-10.789,7.782-30.899,21.454-48.469,33.278c-4.384-16.302-19.09-28.351-36.769-28.36c-12.552,0-37.621,0-100.313,0l-0.375-0.008
		c-33.053-0.016-56.478,7.107-74.14,17.704c-16.293,9.754-27.25,21.804-37.12,31.826l-40.603,10.864L50.808,512l88.672-25.963
		c1.662-0.234,3.307-0.368,4.718-0.368c1.878-0.008,3.574,0.176,4.526,0.351l0.518,0.108h0.05l110.902,19.95
		c2.647,0.476,5.311,0.718,7.966,0.718c9.212,0,18.256-2.848,25.863-8.201l0.159-0.108l0.108-0.075l-0.017,0.008
		c0.644-0.468,36.06-26.256,72.922-53.246c18.598-13.612,37.554-27.524,52.594-38.648c7.524-5.545,14.064-10.405,19.099-14.188
		c5.078-3.817,8.493-6.414,10.398-7.992l0.142-0.126l0.192-0.167l0.084-0.066l0.05-0.042c7.908-7.182,12.4-16.945,12.4-27.007
		v-0.008v-0.042v-0.092C462.153,347.034,458.111,337.732,451.321,330.358z M435.998,368.764c-1.262,1.036-4.644,3.641-9.404,7.199
		c-17.412,13.078-53.554,39.584-85.305,62.799c-15.876,11.609-30.657,22.398-41.48,30.289
		c-10.405,7.591-17.045,12.427-17.554,12.794c-4.183,2.94-9.094,4.484-14.096,4.484c-1.437,0-2.898-0.134-4.334-0.4l-111.419-20.043
		h0.025c-2.406-0.434-5.17-0.693-8.234-0.693c-2.622,0-5.454,0.192-8.41,0.66l-0.468,0.075l-64.26,18.815l-0.601-70.666
		l30.631-8.201l1.395-1.395c11.24-11.265,21.195-22.623,35.583-31.19c14.389-8.552,33.454-14.756,63.869-14.79
		c62.799,0,87.894,0,100.462,0c9.779,0.016,17.73,7.942,17.737,17.754c0,4.919-1.979,9.378-5.21,12.635
		c-3.257,3.265-7.642,5.261-12.527,5.261h-68.787c-4.076,0-7.374,3.299-7.374,7.374c0,4.067,3.298,7.374,7.374,7.374v-0.008h68.787
		c3.457-0.008,6.714-0.694,9.829-1.704c1.495,0.058,3.023-0.201,4.368-1.094c0.008,0,19.667-13.044,40.753-27.282
		c10.547-7.124,21.445-14.539,30.447-20.769c4.502-3.132,8.527-5.954,11.817-8.326c3.14-2.264,5.511-4.034,7.206-5.437
		c4.961-3.657,10.865-5.595,16.142-5.578c5.328,0.033,9.83,1.77,13.279,5.494c3.799,4.159,5.428,8.56,5.436,12.602
		C441.643,360.931,440.048,364.956,435.998,368.764z" style="fill: rgba(75, 75, 75, 0.39);"></path>
	<path class="st0" d="M394.61,327.852c0.017-0.008,0.025-0.016,0.042-0.025l0.267-0.201L394.61,327.852z" style="fill: rgba(75, 75, 75, 0.39);"></path>
</g>
</svg>
